<svg width="18" height="18" viewBox="0 0 18 18" fill="none" xmlns="http://www.w3.org/2000/svg">
<g clip-path="url(#clip0)">
<path d="M4.55513 17.9848L4.88652 17.8922C5.20527 17.8031 5.39145 17.4725 5.30238 17.1537L1.5136 3.59511C1.46013 3.40376 1.33285 3.2415 1.15974 3.144C0.986629 3.04651 0.781881 3.02178 0.590539 3.07525L0.547742 3.0872C0.149267 3.19853 -0.0835081 3.61181 0.0278212 4.01029L3.8167 17.5689C3.90577 17.8876 4.23637 18.0738 4.55513 17.9848Z" fill="#E93D3F"/>
<path d="M17.8975 8.5097C16.696 7.9106 15.5844 7.1459 14.5954 6.23797C14.5123 6.16187 14.4797 6.04505 14.5116 5.93694C15.0017 4.083 15.3656 2.19799 15.6009 0.29487C15.6382 -0.0216813 15.4675 -0.114785 15.2875 0.102457C11.7557 4.32625 5.64505 -0.670302 2.00781 3.16866C2.05148 3.25042 2.08583 3.33683 2.11023 3.42625L4.56816 12.2276C8.21161 8.43521 14.3006 13.4007 17.8261 9.18625C18.0061 8.96901 18.0402 8.57177 17.8975 8.5097Z" fill="#E93D3F"/>
</g>
<defs>
<clipPath id="clip0">
<rect width="18" height="18" fill="white"/>
</clipPath>
</defs>
</svg>
